<?xml version="1.0" encoding="utf-8"?>
<!-- Generator: Adobe Illustrator 16.1.0, SVG Export Plug-In . SVG Version: 6.00 Build 0)  -->
<!DOCTYPE svg PUBLIC "-//W3C//DTD SVG 1.1 Tiny//EN" "http://www.w3.org/Graphics/SVG/1.1/DTD/svg11-tiny.dtd">
<svg version="1.1" baseProfile="tiny" id="Layer_1" xmlns="http://www.w3.org/2000/svg" xmlns:xlink="http://www.w3.org/1999/xlink"
	 x="0px" y="0px" width="230.4px" height="261.962px" viewBox="0 0 230.4 261.962" xml:space="preserve">
<g>
	<rect x="14.382" y="113.465" fill="none" width="201.639" height="82.659"/>
	<path fill="#999999" d="M16.491,123.94v-0.036c0-1.909,1.638-2.989,4.015-2.989c1.278,0,2.161,0.162,3.043,0.396v-0.396
		c0-1.854-1.134-2.809-3.025-2.809c-1.117,0-2.035,0.306-2.881,0.738l-0.324-0.774c1.008-0.468,1.999-0.792,3.259-0.792
		c1.243,0,2.233,0.342,2.899,1.008c0.612,0.612,0.937,1.458,0.937,2.593v5.725h-0.864v-1.529c-0.63,0.882-1.765,1.746-3.511,1.746
		C18.328,126.821,16.491,125.849,16.491,123.94z M23.567,123.166v-1.044c-0.774-0.198-1.801-0.414-3.115-0.414
		c-1.944,0-3.025,0.864-3.025,2.143v0.035c0,1.333,1.26,2.107,2.665,2.107C21.965,125.993,23.567,124.841,23.567,123.166z"/>
	<path fill="#999999" d="M27.579,117.422h0.882v2.611c0.72-1.639,2.251-2.827,4.069-2.755v0.972h-0.09
		c-2.125,0-3.979,1.603-3.979,4.591v3.763h-0.882V117.422z"/>
	<path fill="#999999" d="M33.699,122.032v-0.036c0-2.665,1.873-4.79,4.357-4.79c2.575,0,4.213,2.089,4.213,4.808
		c0,0.162,0,0.216-0.018,0.36h-7.616c0.162,2.286,1.801,3.619,3.601,3.619c1.422,0,2.395-0.631,3.151-1.441L42,125.093
		c-0.936,1.008-2.035,1.729-3.799,1.729C35.788,126.821,33.699,124.895,33.699,122.032z M41.315,121.582
		c-0.126-1.854-1.188-3.565-3.295-3.565c-1.819,0-3.223,1.53-3.385,3.565H41.315z"/>
	<path fill="#999999" d="M50.062,128.117l0.522-0.72c1.098,0.846,2.359,1.296,3.709,1.296c2.107,0,3.601-1.206,3.601-3.565v-1.332
		c-0.792,1.135-2.017,2.125-3.835,2.125c-2.215,0-4.411-1.692-4.411-4.321v-0.036c0-2.647,2.196-4.357,4.411-4.357
		c1.836,0,3.079,0.973,3.835,2.053v-1.836h0.882v7.76c0,1.332-0.432,2.377-1.17,3.115c-0.792,0.792-1.98,1.225-3.331,1.225
		C52.744,129.522,51.322,129.054,50.062,128.117z M57.948,121.582v-0.036c0-2.125-1.891-3.493-3.799-3.493
		c-1.926,0-3.547,1.333-3.547,3.475v0.036c0,2.07,1.656,3.512,3.547,3.512C56.057,125.075,57.948,123.67,57.948,121.582z"/>
	<path fill="#999999" d="M61.491,122.032v-0.036c0-2.665,1.873-4.79,4.357-4.79c2.575,0,4.213,2.089,4.213,4.808
		c0,0.162,0,0.216-0.018,0.36h-7.616c0.162,2.286,1.801,3.619,3.601,3.619c1.422,0,2.395-0.631,3.151-1.441l0.612,0.541
		c-0.936,1.008-2.035,1.729-3.799,1.729C63.58,126.821,61.491,124.895,61.491,122.032z M69.107,121.582
		c-0.126-1.854-1.188-3.565-3.295-3.565c-1.819,0-3.223,1.53-3.385,3.565H69.107z"/>
	<path fill="#999999" d="M73.12,124.246v-6.014h-1.333v-0.81h1.333v-2.935h0.882v2.935h3.223v0.81h-3.223v5.924
		c0,1.314,0.774,1.782,1.836,1.782c0.45,0,0.828-0.09,1.351-0.324v0.828c-0.468,0.217-0.918,0.324-1.495,0.324
		C74.272,126.767,73.12,125.993,73.12,124.246z"/>
	<path fill="#999999" d="M80.319,124.246v-6.014h-1.333v-0.81h1.333v-2.935h0.882v2.935h3.223v0.81h-3.223v5.924
		c0,1.314,0.774,1.782,1.836,1.782c0.45,0,0.828-0.09,1.351-0.324v0.828c-0.468,0.217-0.918,0.324-1.495,0.324
		C81.472,126.767,80.319,125.993,80.319,124.246z"/>
	<path fill="#999999" d="M87.051,113.821h1.099v1.206h-1.099V113.821z M87.159,117.422h0.882v9.182h-0.882V117.422z"/>
	<path fill="#999999" d="M91.515,117.422h0.882v1.71c0.612-1.081,1.639-1.927,3.313-1.927c2.323,0,3.673,1.584,3.673,3.781v5.617
		h-0.882v-5.455c0-1.891-1.062-3.133-2.917-3.133c-1.8,0-3.187,1.368-3.187,3.277v5.311h-0.882V117.422z"/>
	<path fill="#999999" d="M102.369,128.117l0.522-0.72c1.098,0.846,2.359,1.296,3.709,1.296c2.107,0,3.601-1.206,3.601-3.565v-1.332
		c-0.792,1.135-2.017,2.125-3.835,2.125c-2.215,0-4.412-1.692-4.412-4.321v-0.036c0-2.647,2.197-4.357,4.412-4.357
		c1.836,0,3.079,0.973,3.835,2.053v-1.836h0.882v7.76c0,1.332-0.432,2.377-1.17,3.115c-0.792,0.792-1.98,1.225-3.331,1.225
		C105.051,129.522,103.629,129.054,102.369,128.117z M110.255,121.582v-0.036c0-2.125-1.891-3.493-3.799-3.493
		c-1.926,0-3.547,1.333-3.547,3.475v0.036c0,2.07,1.656,3.512,3.547,3.512C108.364,125.075,110.255,123.67,110.255,121.582z"/>
	<path fill="#999999" d="M119.828,117.422h0.882v1.638c0.595-0.954,1.423-1.854,3.062-1.854c1.603,0,2.593,0.918,3.097,1.98
		c0.594-1.026,1.585-1.98,3.313-1.98c2.179,0,3.529,1.531,3.529,3.835v5.563h-0.883v-5.455c0-1.98-1.026-3.133-2.719-3.133
		c-1.548,0-2.899,1.188-2.899,3.241v5.347h-0.882v-5.509c0-1.909-1.044-3.079-2.683-3.079s-2.936,1.44-2.936,3.295v5.293h-0.882
		V117.422z"/>
	<path fill="#999999" d="M136.189,123.94v-0.036c0-1.909,1.639-2.989,4.016-2.989c1.278,0,2.16,0.162,3.043,0.396v-0.396
		c0-1.854-1.135-2.809-3.025-2.809c-1.116,0-2.034,0.306-2.881,0.738l-0.324-0.774c1.009-0.468,1.999-0.792,3.26-0.792
		c1.242,0,2.232,0.342,2.898,1.008c0.612,0.612,0.937,1.458,0.937,2.593v5.725h-0.864v-1.529c-0.631,0.882-1.765,1.746-3.512,1.746
		C138.026,126.821,136.189,125.849,136.189,123.94z M143.266,123.166v-1.044c-0.774-0.198-1.801-0.414-3.114-0.414
		c-1.945,0-3.025,0.864-3.025,2.143v0.035c0,1.333,1.261,2.107,2.665,2.107C141.663,125.993,143.266,124.841,143.266,123.166z"/>
	<path fill="#999999" d="M147.278,117.422h0.882v2.611c0.721-1.639,2.251-2.827,4.069-2.755v0.972h-0.09
		c-2.125,0-3.979,1.603-3.979,4.591v3.763h-0.882V117.422z"/>
	<path fill="#999999" d="M154.479,117.422h0.882v2.611c0.721-1.639,2.251-2.827,4.069-2.755v0.972h-0.09
		c-2.125,0-3.979,1.603-3.979,4.591v3.763h-0.882V117.422z"/>
	<path fill="#999999" d="M161.696,113.821h1.099v1.206h-1.099V113.821z M161.805,117.422h0.882v9.182h-0.882V117.422z"/>
	<path fill="#999999" d="M165.529,122.032v-0.036c0-2.665,1.873-4.79,4.357-4.79c2.575,0,4.214,2.089,4.214,4.808
		c0,0.162,0,0.216-0.019,0.36h-7.616c0.162,2.286,1.801,3.619,3.602,3.619c1.422,0,2.395-0.631,3.15-1.441l0.612,0.541
		c-0.937,1.008-2.034,1.729-3.799,1.729C167.618,126.821,165.529,124.895,165.529,122.032z M173.146,121.582
		c-0.126-1.854-1.188-3.565-3.295-3.565c-1.818,0-3.223,1.53-3.385,3.565H173.146z"/>
	<path fill="#999999" d="M176.077,122.05v-0.036c0-2.989,2.251-4.808,4.466-4.808c1.836,0,3.024,1.044,3.781,2.197v-5.942h0.882
		v13.144h-0.882v-2.053c-0.793,1.207-1.963,2.27-3.781,2.27C178.328,126.821,176.077,125.038,176.077,122.05z M184.378,122.032
		v-0.036c0-2.359-1.837-3.943-3.745-3.943c-1.999,0-3.602,1.458-3.602,3.925v0.036c0,2.413,1.675,3.961,3.602,3.961
		C182.541,125.975,184.378,124.372,184.378,122.032z"/>
	<path fill="#999999" d="M193.32,122.05v-0.036c0-2.575,1.999-4.808,4.735-4.808c2.72,0,4.7,2.197,4.7,4.771v0.036
		c0,2.575-1.999,4.808-4.735,4.808C195.301,126.821,193.32,124.624,193.32,122.05z M201.801,122.05v-0.036
		c0-2.215-1.656-3.979-3.78-3.979c-2.179,0-3.745,1.783-3.745,3.943v0.036c0,2.215,1.656,3.979,3.78,3.979
		C200.234,125.993,201.801,124.21,201.801,122.05z"/>
	<path fill="#999999" d="M205.471,117.422h0.882v1.71c0.612-1.081,1.639-1.927,3.313-1.927c2.322,0,3.673,1.584,3.673,3.781v5.617
		h-0.883v-5.455c0-1.891-1.062-3.133-2.916-3.133c-1.801,0-3.188,1.368-3.188,3.277v5.311h-0.882V117.422z"/>
	<path fill="#999999" d="M31.278,152.769l0.612-0.702c1.387,1.278,2.665,1.872,4.52,1.872c1.891,0,3.187-1.062,3.187-2.502v-0.037
		c0-1.332-0.702-2.105-3.565-2.682c-3.025-0.613-4.25-1.639-4.25-3.548v-0.036c0-1.872,1.71-3.312,4.051-3.312
		c1.836,0,3.043,0.504,4.321,1.53l-0.594,0.738c-1.188-1.026-2.376-1.423-3.763-1.423c-1.854,0-3.079,1.062-3.079,2.377v0.036
		c0,1.333,0.684,2.143,3.673,2.755c2.917,0.594,4.141,1.639,4.141,3.475v0.037c0,2.034-1.746,3.438-4.177,3.438
		C34.338,154.785,32.79,154.118,31.278,152.769z"/>
	<path fill="#999999" d="M42.78,150.032v-0.037c0-2.664,1.873-4.789,4.357-4.789c2.575,0,4.213,2.089,4.213,4.808
		c0,0.162,0,0.216-0.018,0.36h-7.616c0.162,2.286,1.801,3.619,3.601,3.619c1.422,0,2.395-0.631,3.151-1.441l0.612,0.541
		c-0.936,1.008-2.035,1.729-3.799,1.729C44.868,154.821,42.78,152.895,42.78,150.032z M50.396,149.581
		c-0.126-1.854-1.188-3.564-3.295-3.564c-1.819,0-3.223,1.53-3.385,3.564H50.396z"/>
	<path fill="#999999" d="M53.922,145.423h0.882v2.052c0.792-1.206,1.963-2.269,3.781-2.269c2.215,0,4.465,1.783,4.465,4.771v0.036
		c0,2.989-2.25,4.808-4.465,4.808c-1.836,0-3.025-1.045-3.781-2.197v4.861h-0.882V145.423z M62.097,150.05v-0.036
		c0-2.413-1.675-3.962-3.601-3.962c-1.909,0-3.745,1.604-3.745,3.943v0.037c0,2.357,1.836,3.942,3.745,3.942
		C60.494,153.975,62.097,152.517,62.097,150.05z"/>
	<path fill="#999999" d="M66.288,152.246v-6.014h-1.333v-0.81h1.333v-2.936h0.882v2.936h3.223v0.81H67.17v5.924
		c0,1.314,0.774,1.782,1.836,1.782c0.45,0,0.828-0.09,1.351-0.324v0.828c-0.468,0.217-0.918,0.324-1.495,0.324
		C67.44,154.767,66.288,153.993,66.288,152.246z"/>
	<path fill="#999999" d="M72.102,150.032v-0.037c0-2.664,1.873-4.789,4.357-4.789c2.575,0,4.213,2.089,4.213,4.808
		c0,0.162,0,0.216-0.018,0.36h-7.616c0.162,2.286,1.801,3.619,3.601,3.619c1.422,0,2.395-0.631,3.151-1.441l0.612,0.541
		c-0.936,1.008-2.035,1.729-3.799,1.729C74.19,154.821,72.102,152.895,72.102,150.032z M79.718,149.581
		c-0.126-1.854-1.188-3.564-3.295-3.564c-1.819,0-3.223,1.53-3.385,3.564H79.718z"/>
	<path fill="#999999" d="M83.244,145.423h0.882v1.638c0.594-0.954,1.422-1.854,3.061-1.854c1.603,0,2.593,0.918,3.097,1.98
		c0.594-1.025,1.584-1.98,3.312-1.98c2.179,0,3.529,1.531,3.529,3.836v5.562h-0.882v-5.455c0-1.98-1.026-3.133-2.719-3.133
		c-1.548,0-2.899,1.188-2.899,3.24v5.348h-0.882v-5.51c0-1.908-1.044-3.078-2.683-3.078c-1.639,0-2.935,1.44-2.935,3.295v5.293
		h-0.882V145.423z"/>
	<path fill="#999999" d="M101.244,152.624v1.98h-0.882v-13.144h0.882v6.014c0.792-1.206,1.963-2.269,3.781-2.269
		c2.215,0,4.465,1.783,4.465,4.771v0.036c0,2.989-2.25,4.808-4.465,4.808C103.188,154.821,102,153.776,101.244,152.624z
		 M108.536,150.05v-0.036c0-2.413-1.675-3.962-3.601-3.962c-1.909,0-3.745,1.604-3.745,3.943v0.037c0,2.357,1.836,3.942,3.745,3.942
		C106.934,153.975,108.536,152.517,108.536,150.05z"/>
	<path fill="#999999" d="M111.611,150.032v-0.037c0-2.664,1.873-4.789,4.357-4.789c2.575,0,4.213,2.089,4.213,4.808
		c0,0.162,0,0.216-0.019,0.36h-7.616c0.162,2.286,1.801,3.619,3.601,3.619c1.423,0,2.396-0.631,3.151-1.441l0.611,0.541
		c-0.936,1.008-2.034,1.729-3.799,1.729C113.7,154.821,111.611,152.895,111.611,150.032z M119.228,149.581
		c-0.126-1.854-1.188-3.564-3.295-3.564c-1.819,0-3.223,1.53-3.385,3.564H119.228z"/>
	<path fill="#999999" d="M122.753,145.423h0.883v2.61c0.721-1.639,2.251-2.827,4.069-2.755v0.973h-0.09
		c-2.125,0-3.979,1.602-3.979,4.591v3.763h-0.883V145.423z"/>
	<path fill="#999999" d="M134.543,153.903l4.699-4.25c2.07-1.891,2.791-2.971,2.791-4.303c0-1.639-1.332-2.701-2.845-2.701
		c-1.603,0-2.646,0.828-3.691,2.341l-0.702-0.468c1.099-1.675,2.269-2.701,4.483-2.701c2.143,0,3.745,1.494,3.745,3.457v0.036
		c0,1.729-0.937,2.881-3.15,4.897l-3.854,3.492h7.13v0.9h-8.606V153.903z"/>
	<path fill="#999999" d="M147.521,142.884l-2.431,0.828l-0.252-0.738l2.881-1.062h0.721v12.693h-0.919V142.884z"/>
	<path fill="#999999" d="M151.283,156.081c0.774-0.396,1.062-0.792,1.009-1.477h-0.486v-1.529h1.188v1.332
		c0,1.116-0.414,1.71-1.495,2.125L151.283,156.081z"/>
	<path fill="#999999" d="M160.732,153.903l4.699-4.25c2.07-1.891,2.791-2.971,2.791-4.303c0-1.639-1.332-2.701-2.845-2.701
		c-1.603,0-2.646,0.828-3.691,2.341l-0.702-0.468c1.099-1.675,2.269-2.701,4.483-2.701c2.143,0,3.745,1.494,3.745,3.457v0.036
		c0,1.729-0.937,2.881-3.15,4.897l-3.854,3.492h7.13v0.9h-8.606V153.903z"/>
	<path fill="#999999" d="M171.658,148.339v-0.035c0-3.476,2.035-6.519,5.24-6.519s5.203,3.007,5.203,6.481v0.037
		c0,3.475-2.034,6.518-5.239,6.518S171.658,151.813,171.658,148.339z M181.13,148.339v-0.035c0-2.936-1.657-5.672-4.268-5.672
		c-2.611,0-4.231,2.7-4.231,5.635v0.037c0,2.916,1.656,5.671,4.268,5.671C179.509,153.975,181.13,151.256,181.13,148.339z"/>
	<path fill="#999999" d="M186.401,142.884l-2.431,0.828l-0.252-0.738l2.881-1.062h0.721v12.693h-0.919V142.884z"/>
	<path fill="#999999" d="M190.182,152.552l0.72-0.594c1.009,1.278,2.269,2.017,3.925,2.017c1.693,0,3.115-1.134,3.115-2.79v-0.037
		c0-1.764-1.656-2.736-3.925-2.736h-0.685l-0.234-0.521l4.34-5.006h-6.608v-0.883h7.887v0.666l-4.268,4.88
		c2.396,0.144,4.466,1.261,4.466,3.565v0.035c0,2.197-1.927,3.674-4.105,3.674C192.756,154.821,191.208,153.885,190.182,152.552z"/>
	<path fill="#999999" d="M48.729,169.821h1.099v1.206h-1.099V169.821z M48.837,173.423h0.882v9.182h-0.882V173.423z"/>
	<path fill="#999999" d="M53.192,173.423h0.882v1.71c0.612-1.081,1.639-1.927,3.313-1.927c2.323,0,3.673,1.584,3.673,3.781v5.617
		h-0.882v-5.455c0-1.891-1.062-3.133-2.917-3.133c-1.8,0-3.187,1.368-3.187,3.277v5.311h-0.882V173.423z"/>
	<path fill="#999999" d="M69.824,170.001h0.937v11.74h7.4v0.863h-8.336V170.001z"/>
	<path fill="#999999" d="M79.958,178.05v-0.036c0-2.575,1.999-4.808,4.735-4.808c2.719,0,4.699,2.197,4.699,4.771v0.036
		c0,2.575-1.999,4.808-4.735,4.808C81.938,182.821,79.958,180.624,79.958,178.05z M88.438,178.05v-0.036
		c0-2.215-1.657-3.979-3.781-3.979c-2.179,0-3.745,1.783-3.745,3.943v0.036c0,2.215,1.657,3.979,3.781,3.979
		C86.872,181.993,88.438,180.21,88.438,178.05z"/>
	<path fill="#999999" d="M91.928,179.04v-5.617h0.882v5.455c0,1.891,1.062,3.133,2.917,3.133c1.801,0,3.187-1.368,3.187-3.277
		v-5.311h0.882v9.182h-0.882v-1.71c-0.612,1.08-1.639,1.927-3.313,1.927C93.278,182.821,91.928,181.236,91.928,179.04z"/>
	<path fill="#999999" d="M103.16,169.821h1.099v1.206h-1.099V169.821z M103.268,173.423h0.882v9.182h-0.882V173.423z"/>
	<path fill="#999999" d="M106.832,181.452l0.522-0.701c1.008,0.773,2.125,1.206,3.295,1.206c1.243,0,2.215-0.685,2.215-1.747v-0.035
		c0-1.081-1.152-1.477-2.431-1.837c-1.495-0.433-3.151-0.882-3.151-2.521v-0.037c0-1.476,1.242-2.538,3.025-2.538
		c1.098,0,2.341,0.396,3.259,1.009l-0.468,0.738c-0.846-0.559-1.854-0.919-2.827-0.919c-1.26,0-2.089,0.685-2.089,1.603v0.036
		c0,1.026,1.243,1.404,2.557,1.782c1.476,0.414,3.025,0.955,3.025,2.575v0.036c0,1.639-1.404,2.683-3.169,2.683
		C109.262,182.785,107.804,182.245,106.832,181.452z"/>
	<path fill="#999999" d="M115.273,173.423h1.026l3.475,8.191l3.512-8.191h0.99l-4.123,9.254h-0.757L115.273,173.423z"/>
	<path fill="#999999" d="M126.703,169.821h1.099v1.206h-1.099V169.821z M126.812,173.423h0.882v9.182h-0.882V173.423z"/>
	<path fill="#999999" d="M131.293,169.461h0.883v13.144h-0.883V169.461z"/>
	<path fill="#999999" d="M135.774,169.461h0.882v13.144h-0.882V169.461z"/>
	<path fill="#999999" d="M139.499,178.032v-0.037c0-2.664,1.873-4.789,4.357-4.789c2.575,0,4.214,2.089,4.214,4.808
		c0,0.162,0,0.216-0.019,0.36h-7.616c0.162,2.286,1.801,3.619,3.602,3.619c1.422,0,2.395-0.631,3.15-1.441l0.612,0.541
		c-0.937,1.008-2.034,1.729-3.799,1.729C141.588,182.821,139.499,180.895,139.499,178.032z M147.115,177.581
		c-0.126-1.854-1.188-3.564-3.295-3.564c-1.818,0-3.223,1.53-3.385,3.564H147.115z"/>
	<path fill="#999999" d="M149.741,184.081c0.774-0.396,1.062-0.792,1.009-1.477h-0.486v-1.529h1.188v1.332
		c0,1.116-0.414,1.71-1.495,2.125L149.741,184.081z"/>
	<path fill="#999999" d="M160.199,170.001h0.936v8.283l8.03-8.283h1.278l-5.509,5.564l5.743,7.039h-1.225l-5.186-6.373l-3.133,3.168
		v3.205h-0.936V170.001z"/>
	<path fill="#999999" d="M176.454,177.618l-5.401-7.617h1.17l4.718,6.771l4.735-6.771h1.116l-5.401,7.599v5.005h-0.937V177.618z"/>
</g>
<g>
	<path d="M72.257,241.134l0.442-0.507c1.001,0.923,1.924,1.352,3.263,1.352c1.365,0,2.301-0.767,2.301-1.807v-0.026
		c0-0.962-0.507-1.521-2.574-1.937c-2.184-0.442-3.068-1.184-3.068-2.562v-0.025c0-1.353,1.235-2.393,2.925-2.393
		c1.326,0,2.197,0.364,3.12,1.105l-0.429,0.533c-0.858-0.741-1.716-1.027-2.717-1.027c-1.339,0-2.223,0.767-2.223,1.716v0.026
		c0,0.962,0.494,1.547,2.652,1.988c2.106,0.43,2.99,1.184,2.99,2.51v0.025c0,1.47-1.261,2.483-3.016,2.483
		C74.467,242.59,73.349,242.109,72.257,241.134z"/>
	<path d="M80.473,240.536v-0.026c0-1.378,1.183-2.158,2.899-2.158c0.923,0,1.56,0.117,2.197,0.286v-0.286
		c0-1.339-0.819-2.028-2.184-2.028c-0.806,0-1.469,0.222-2.08,0.533l-0.234-0.559c0.728-0.338,1.443-0.572,2.353-0.572
		c0.897,0,1.612,0.247,2.093,0.729c0.442,0.441,0.676,1.053,0.676,1.872v4.134h-0.624v-1.105c-0.455,0.638-1.274,1.262-2.535,1.262
		C81.799,242.616,80.473,241.914,80.473,240.536z M85.582,239.977v-0.754c-0.559-0.143-1.3-0.299-2.249-0.299
		c-1.404,0-2.184,0.624-2.184,1.547v0.026c0,0.962,0.91,1.521,1.924,1.521C84.425,242.018,85.582,241.186,85.582,239.977z"/>
	<path d="M87.545,235.83h0.741l2.509,5.915l2.535-5.915h0.715l-2.977,6.682h-0.546L87.545,235.83z"/>
	<path d="M94.941,239.158v-0.026c0-1.924,1.352-3.458,3.146-3.458c1.859,0,3.042,1.508,3.042,3.471c0,0.117,0,0.156-0.013,0.261
		h-5.499c0.117,1.65,1.3,2.612,2.6,2.612c1.027,0,1.729-0.455,2.275-1.04l0.442,0.391c-0.676,0.728-1.469,1.248-2.743,1.248
		C96.45,242.616,94.941,241.225,94.941,239.158z M100.441,238.833c-0.091-1.339-0.858-2.574-2.379-2.574
		c-1.313,0-2.327,1.105-2.444,2.574H100.441z"/>
	<path d="M107.239,240.757v-4.342h-0.962v-0.585h0.962v-2.119h0.637v2.119h2.327v0.585h-2.327v4.277
		c0,0.948,0.559,1.286,1.326,1.286c0.325,0,0.598-0.064,0.975-0.233v0.598c-0.338,0.156-0.663,0.234-1.079,0.234
		C108.071,242.577,107.239,242.018,107.239,240.757z"/>
	<path d="M112.088,232.97h0.637v4.095c0.442-0.779,1.183-1.391,2.392-1.391c1.677,0,2.651,1.144,2.651,2.729v4.057h-0.637v-3.939
		c0-1.365-0.767-2.262-2.106-2.262c-1.3,0-2.301,0.988-2.301,2.366v3.835h-0.637V232.97z"/>
	<path d="M119.602,239.158v-0.026c0-1.924,1.353-3.458,3.146-3.458c1.859,0,3.043,1.508,3.043,3.471c0,0.117,0,0.156-0.014,0.261
		h-5.498c0.116,1.65,1.299,2.612,2.6,2.612c1.027,0,1.729-0.455,2.275-1.04l0.441,0.391c-0.676,0.728-1.469,1.248-2.742,1.248
		C121.11,242.616,119.602,241.225,119.602,239.158z M125.101,238.833c-0.091-1.339-0.857-2.574-2.379-2.574
		c-1.312,0-2.327,1.105-2.443,2.574H125.101z"/>
	<path d="M131.12,239.171v-0.026c0-2.158,1.625-3.471,3.223-3.471c1.326,0,2.186,0.754,2.73,1.586v-4.29h0.637v9.49h-0.637v-1.482
		c-0.572,0.871-1.416,1.639-2.73,1.639C132.745,242.616,131.12,241.329,131.12,239.171z M137.112,239.158v-0.026
		c0-1.703-1.326-2.847-2.703-2.847c-1.443,0-2.601,1.053-2.601,2.834v0.025c0,1.742,1.209,2.86,2.601,2.86
		C135.786,242.005,137.112,240.848,137.112,239.158z"/>
	<path d="M139.583,240.536v-0.026c0-1.378,1.183-2.158,2.898-2.158c0.924,0,1.561,0.117,2.197,0.286v-0.286
		c0-1.339-0.818-2.028-2.184-2.028c-0.807,0-1.47,0.222-2.08,0.533l-0.234-0.559c0.729-0.338,1.443-0.572,2.354-0.572
		c0.896,0,1.611,0.247,2.092,0.729c0.443,0.441,0.677,1.053,0.677,1.872v4.134h-0.624v-1.105c-0.455,0.638-1.273,1.262-2.535,1.262
		C140.909,242.616,139.583,241.914,139.583,240.536z M144.692,239.977v-0.754c-0.56-0.143-1.301-0.299-2.25-0.299
		c-1.404,0-2.184,0.624-2.184,1.547v0.026c0,0.962,0.91,1.521,1.924,1.521C143.534,242.018,144.692,241.186,144.692,239.977z"/>
	<path d="M147.876,240.757v-4.342h-0.961v-0.585h0.961v-2.119h0.638v2.119h2.327v0.585h-2.327v4.277c0,0.948,0.56,1.286,1.325,1.286
		c0.326,0,0.6-0.064,0.977-0.233v0.598c-0.34,0.156-0.664,0.234-1.08,0.234C148.708,242.577,147.876,242.018,147.876,240.757z"/>
	<path d="M152.075,239.158v-0.026c0-1.924,1.352-3.458,3.146-3.458c1.857,0,3.041,1.508,3.041,3.471c0,0.117,0,0.156-0.012,0.261
		h-5.5c0.117,1.65,1.301,2.612,2.6,2.612c1.027,0,1.729-0.455,2.275-1.04l0.441,0.391c-0.676,0.728-1.469,1.248-2.742,1.248
		C153.583,242.616,152.075,241.225,152.075,239.158z M157.573,238.833c-0.09-1.339-0.857-2.574-2.379-2.574
		c-1.312,0-2.326,1.105-2.443,2.574H157.573z"/>
	<path fill="#999999" d="M67.551,250.359h0.676v9.101h-0.676V250.359z"/>
	<path fill="#999999" d="M70.879,252.83h0.637v1.234c0.442-0.779,1.183-1.391,2.392-1.391c1.677,0,2.652,1.144,2.652,2.729v4.057
		h-0.637v-3.939c0-1.365-0.767-2.262-2.106-2.262c-1.3,0-2.301,0.988-2.301,2.366v3.835h-0.637V252.83z"/>
	<path fill="#999999" d="M77.912,252.83h0.741l2.509,5.915l2.535-5.915h0.715l-2.977,6.682h-0.546L77.912,252.83z"/>
	<path fill="#999999" d="M86.167,250.229h0.793v0.871h-0.793V250.229z M86.245,252.83h0.637v6.63h-0.637V252.83z"/>
	<path fill="#999999" d="M89.742,257.757v-4.342H88.78v-0.585h0.962v-2.119h0.637v2.119h2.327v0.585h-2.327v4.277
		c0,0.948,0.559,1.286,1.326,1.286c0.325,0,0.598-0.064,0.975-0.233v0.598c-0.338,0.156-0.663,0.234-1.079,0.234
		C90.574,259.577,89.742,259.018,89.742,257.757z"/>
	<path fill="#999999" d="M94.044,257.536v-0.026c0-1.378,1.183-2.158,2.899-2.158c0.923,0,1.56,0.117,2.197,0.286v-0.286
		c0-1.339-0.819-2.028-2.184-2.028c-0.806,0-1.469,0.222-2.08,0.533l-0.234-0.559c0.728-0.338,1.443-0.572,2.353-0.572
		c0.897,0,1.612,0.247,2.093,0.729c0.442,0.441,0.676,1.053,0.676,1.872v4.134h-0.624v-1.105c-0.455,0.638-1.274,1.262-2.535,1.262
		C95.371,259.616,94.044,258.914,94.044,257.536z M99.154,256.977v-0.754c-0.559-0.143-1.3-0.299-2.25-0.299
		c-1.404,0-2.184,0.624-2.184,1.547v0.026c0,0.962,0.91,1.521,1.924,1.521C97.997,259.018,99.154,258.186,99.154,256.977z"/>
	<path fill="#999999" d="M102.338,257.757v-4.342h-0.962v-0.585h0.962v-2.119h0.637v2.119h2.327v0.585h-2.327v4.277
		c0,0.948,0.559,1.286,1.326,1.286c0.325,0,0.598-0.064,0.975-0.233v0.598c-0.338,0.156-0.663,0.234-1.079,0.234
		C103.17,259.577,102.338,259.018,102.338,257.757z"/>
	<path fill="#999999" d="M107.2,250.229h0.793v0.871H107.2V250.229z M107.278,252.83h0.637v6.63h-0.637V252.83z"/>
	<path fill="#999999" d="M109.969,256.171v-0.026c0-1.858,1.443-3.471,3.419-3.471c1.963,0,3.393,1.586,3.393,3.445v0.025
		c0,1.859-1.443,3.472-3.419,3.472C111.399,259.616,109.969,258.03,109.969,256.171z M116.092,256.171v-0.026
		c0-1.599-1.196-2.873-2.73-2.873c-1.573,0-2.704,1.287-2.704,2.848v0.025c0,1.6,1.196,2.873,2.73,2.873
		C114.961,259.018,116.092,257.73,116.092,256.171z"/>
	<path fill="#999999" d="M118.743,252.83h0.638v1.234c0.442-0.779,1.183-1.391,2.392-1.391c1.678,0,2.652,1.144,2.652,2.729v4.057
		h-0.637v-3.939c0-1.365-0.768-2.262-2.106-2.262c-1.3,0-2.301,0.988-2.301,2.366v3.835h-0.638V252.83z"/>
	<path fill="#999999" d="M126.141,258.628l0.377-0.507c0.728,0.559,1.534,0.871,2.379,0.871c0.897,0,1.599-0.494,1.599-1.262v-0.025
		c0-0.78-0.832-1.066-1.754-1.326c-1.08-0.312-2.275-0.637-2.275-1.82v-0.025c0-1.066,0.896-1.833,2.184-1.833
		c0.793,0,1.689,0.285,2.354,0.728l-0.338,0.533c-0.611-0.403-1.34-0.663-2.041-0.663c-0.91,0-1.508,0.494-1.508,1.157v0.025
		c0,0.741,0.896,1.015,1.846,1.287c1.066,0.299,2.184,0.689,2.184,1.859v0.026c0,1.183-1.014,1.937-2.288,1.937
		C127.896,259.59,126.843,259.2,126.141,258.628z"/>
	<path fill="#999999" d="M137.165,249.97h0.637v9.49h-0.637V249.97z"/>
	<path fill="#999999" d="M139.765,257.536v-0.026c0-1.378,1.183-2.158,2.898-2.158c0.924,0,1.561,0.117,2.197,0.286v-0.286
		c0-1.339-0.818-2.028-2.184-2.028c-0.807,0-1.47,0.222-2.08,0.533l-0.234-0.559c0.729-0.338,1.443-0.572,2.354-0.572
		c0.896,0,1.611,0.247,2.092,0.729c0.443,0.441,0.677,1.053,0.677,1.872v4.134h-0.624v-1.105c-0.455,0.638-1.273,1.262-2.535,1.262
		C141.091,259.616,139.765,258.914,139.765,257.536z M144.874,256.977v-0.754c-0.56-0.143-1.301-0.299-2.25-0.299
		c-1.404,0-2.184,0.624-2.184,1.547v0.026c0,0.962,0.91,1.521,1.924,1.521C143.716,259.018,144.874,258.186,144.874,256.977z"/>
	<path fill="#999999" d="M148.058,257.757v-4.342h-0.961v-0.585h0.961v-2.119h0.638v2.119h2.327v0.585h-2.327v4.277
		c0,0.948,0.56,1.286,1.325,1.286c0.326,0,0.6-0.064,0.977-0.233v0.598c-0.34,0.156-0.664,0.234-1.08,0.234
		C148.89,259.577,148.058,259.018,148.058,257.757z"/>
	<path fill="#999999" d="M152.257,256.158v-0.026c0-1.924,1.352-3.458,3.146-3.458c1.857,0,3.041,1.508,3.041,3.471
		c0,0.117,0,0.156-0.012,0.261h-5.5c0.117,1.65,1.301,2.612,2.6,2.612c1.027,0,1.729-0.455,2.275-1.04l0.441,0.391
		c-0.676,0.728-1.469,1.248-2.742,1.248C153.765,259.616,152.257,258.225,152.257,256.158z M157.755,255.833
		c-0.09-1.339-0.857-2.574-2.379-2.574c-1.312,0-2.326,1.105-2.443,2.574H157.755z"/>
	<path fill="#999999" d="M160.304,252.83h0.637v1.885c0.52-1.183,1.625-2.041,2.938-1.989v0.702h-0.064
		c-1.533,0-2.873,1.157-2.873,3.315v2.717h-0.637V252.83z"/>
</g>
<g>
	<rect x="45.439" fill="none" width="139.525" height="63.879"/>
	<path fill="#22BBB4" d="M48.562,43.959l6.371-7.631c4.41,3.64,9.031,5.951,14.631,5.951c4.411,0,7.071-1.75,7.071-4.621v-0.14
		c0-2.73-1.68-4.13-9.871-6.23c-9.871-2.521-16.242-5.25-16.242-14.981v-0.14c0-8.891,7.141-14.771,17.152-14.771
		c7.141,0,13.231,2.24,18.202,6.23l-5.601,8.121c-4.34-3.01-8.611-4.831-12.741-4.831s-6.301,1.89-6.301,4.271v0.14
		c0,3.221,2.101,4.271,10.571,6.441c9.941,2.59,15.542,6.161,15.542,14.702v0.14c0,9.731-7.42,15.192-17.992,15.192
		C61.934,51.8,54.443,49.209,48.562,43.959z"/>
	<path fill="#EFEFEF" d="M125.565,42.769c-4.48,5.601-10.011,9.031-16.592,9.031c-8.611,0-14.491-5.881-14.491-12.671v-0.14
		c0-8.261,6.721-11.901,13.511-15.051c-4.9-5.111-6.581-8.821-6.581-12.392v-0.14c0-4.76,3.92-10.151,11.131-10.151
		c6.65,0,10.852,4.9,10.852,9.871v0.14c0,5.11-3.221,8.75-13.021,13.091l15.121,16.312c2.66-3.78,4.761-8.051,6.861-13.721
		l1.33,0.42c-2.03,5.531-4.41,10.361-7.281,14.281l8.541,9.241l-1.05,0.91L125.565,42.769z M124.655,41.789l-15.611-16.802
		c-6.581,3.01-13.021,6.23-13.021,14.001v0.14c0,5.951,5.11,11.271,12.951,11.271C115.134,50.399,120.524,47.039,124.655,41.789z
		 M121.925,11.266v-0.14c0-4.201-3.57-8.541-9.381-8.541c-6.09,0-9.661,4.551-9.661,8.751v0.14c0,3.29,1.541,6.861,6.511,11.901
		C118.985,19.176,121.925,15.956,121.925,11.266z"/>
	<path fill="#F395BE" d="M143.342,2.094h36.964v9.591h-26.253v9.941h23.103v9.591h-23.103v10.292h26.603V51.1h-37.313V2.094z"/>
</g>
<g>
	<path fill="#22BBB3" d="M2.809,99.86l0.612-0.702c1.387,1.278,2.665,1.873,4.52,1.873c1.891,0,3.187-1.062,3.187-2.503v-0.036
		c0-1.332-0.702-2.106-3.565-2.683c-3.025-0.612-4.25-1.639-4.25-3.547v-0.036c0-1.873,1.71-3.313,4.051-3.313
		c1.836,0,3.043,0.504,4.321,1.53l-0.594,0.738c-1.188-1.026-2.376-1.422-3.763-1.422c-1.854,0-3.079,1.062-3.079,2.376v0.036
		c0,1.333,0.684,2.143,3.673,2.755c2.917,0.594,4.141,1.639,4.141,3.475v0.036c0,2.034-1.746,3.439-4.177,3.439
		C5.869,101.876,4.321,101.21,2.809,99.86z"/>
	<path fill="#22BBB3" d="M14.185,99.031v-0.036c0-1.909,1.638-2.989,4.015-2.989c1.278,0,2.161,0.162,3.043,0.396v-0.396
		c0-1.855-1.135-2.809-3.025-2.809c-1.117,0-2.035,0.306-2.881,0.738l-0.324-0.774c1.008-0.468,1.999-0.792,3.259-0.792
		c1.243,0,2.233,0.342,2.899,1.008c0.612,0.612,0.937,1.458,0.937,2.593v5.726h-0.864v-1.53c-0.63,0.882-1.765,1.746-3.511,1.746
		C16.021,101.912,14.185,100.94,14.185,99.031z M21.26,98.257v-1.044c-0.774-0.198-1.8-0.414-3.115-0.414
		c-1.944,0-3.025,0.864-3.025,2.143v0.036c0,1.333,1.26,2.106,2.665,2.106C19.658,101.084,21.26,99.932,21.26,98.257z"/>
	<path fill="#22BBB3" d="M25.272,92.514h0.882v1.638c0.594-0.954,1.422-1.854,3.061-1.854c1.603,0,2.593,0.918,3.097,1.981
		c0.594-1.026,1.584-1.981,3.312-1.981c2.179,0,3.529,1.531,3.529,3.835v5.563h-0.882v-5.456c0-1.98-1.026-3.133-2.719-3.133
		c-1.548,0-2.899,1.188-2.899,3.241v5.348h-0.882v-5.51c0-1.908-1.044-3.079-2.683-3.079c-1.639,0-2.935,1.44-2.935,3.295v5.293
		h-0.882V92.514z"/>
	<path fill="#22BBB3" d="M47.178,99.86l0.612-0.702c1.387,1.278,2.665,1.873,4.52,1.873c1.891,0,3.187-1.062,3.187-2.503v-0.036
		c0-1.332-0.702-2.106-3.565-2.683c-3.025-0.612-4.25-1.639-4.25-3.547v-0.036c0-1.873,1.71-3.313,4.051-3.313
		c1.836,0,3.043,0.504,4.321,1.53l-0.594,0.738c-1.188-1.026-2.376-1.422-3.763-1.422c-1.854,0-3.079,1.062-3.079,2.376v0.036
		c0,1.333,0.684,2.143,3.673,2.755c2.917,0.594,4.141,1.639,4.141,3.475v0.036c0,2.034-1.747,3.439-4.177,3.439
		C50.239,101.876,48.69,101.21,47.178,99.86z"/>
	<path fill="#22BBB3" d="M58.68,97.141v-0.036c0-2.575,1.999-4.808,4.735-4.808c2.719,0,4.699,2.197,4.699,4.771v0.036
		c0,2.575-1.999,4.807-4.735,4.807C60.661,101.912,58.68,99.716,58.68,97.141z M67.161,97.141v-0.036
		c0-2.215-1.657-3.979-3.781-3.979c-2.179,0-3.745,1.782-3.745,3.943v0.036c0,2.214,1.657,3.979,3.781,3.979
		C65.594,101.084,67.161,99.302,67.161,97.141z"/>
	<path fill="#22BBB3" d="M71.371,93.324h-1.333v-0.81h1.333v-0.9c0-1.044,0.288-1.873,0.81-2.395c0.468-0.468,1.116-0.72,1.927-0.72
		c0.558,0,0.954,0.072,1.368,0.216v0.828c-0.522-0.162-0.9-0.234-1.368-0.234c-1.261,0-1.855,0.756-1.855,2.323v0.882h3.205v0.81
		h-3.205v8.373h-0.882V93.324z M77.888,93.324h-1.332v-0.81h1.332v-0.9c0-1.044,0.288-1.873,0.811-2.395
		c0.468-0.468,1.116-0.72,1.926-0.72c0.558,0,0.955,0.072,1.369,0.216v0.828c-0.522-0.162-0.9-0.234-1.369-0.234
		c-1.26,0-1.854,0.756-1.854,2.323v0.882h3.205v0.81h-3.205v8.373h-0.882V93.324z"/>
	<path fill="#22BBB3" d="M83.053,97.123v-0.036c0-2.665,1.873-4.79,4.357-4.79c2.575,0,4.213,2.089,4.213,4.808
		c0,0.162,0,0.216-0.018,0.36h-7.616c0.162,2.287,1.801,3.619,3.601,3.619c1.422,0,2.395-0.63,3.151-1.44l0.612,0.54
		c-0.936,1.009-2.035,1.729-3.799,1.729C85.141,101.912,83.053,99.986,83.053,97.123z M90.669,96.673
		c-0.126-1.854-1.188-3.565-3.295-3.565c-1.819,0-3.223,1.53-3.385,3.565H90.669z"/>
	<path fill="#22BBB3" d="M93.403,100.544l0.522-0.702c1.008,0.774,2.125,1.206,3.295,1.206c1.243,0,2.215-0.684,2.215-1.746v-0.036
		c0-1.081-1.152-1.477-2.431-1.836c-1.495-0.432-3.151-0.882-3.151-2.521v-0.036c0-1.476,1.242-2.539,3.025-2.539
		c1.098,0,2.34,0.396,3.259,1.008l-0.468,0.738c-0.846-0.558-1.854-0.918-2.827-0.918c-1.26,0-2.088,0.684-2.088,1.603V94.8
		c0,1.026,1.242,1.404,2.557,1.783c1.477,0.414,3.025,0.954,3.025,2.575v0.036c0,1.639-1.405,2.683-3.169,2.683
		C95.833,101.876,94.375,101.336,93.403,100.544z"/>
	<path fill="#999999" d="M115.887,99.698c-1.188,1.386-2.575,2.179-4.267,2.179c-2.215,0-3.871-1.44-3.871-3.493v-0.036
		c0-1.692,1.206-2.935,3.259-3.691c-0.954-1.062-1.404-1.836-1.404-2.881v-0.036c0-1.621,1.314-2.863,3.151-2.863
		c1.639,0,2.899,1.224,2.899,2.737v0.036c0,1.566-1.17,2.593-3.097,3.259l3.312,3.403c0.613-0.864,1.152-1.909,1.638-3.061
		l0.847,0.342c-0.576,1.296-1.188,2.431-1.872,3.349l2.322,2.395l-0.738,0.612L115.887,99.698z M115.292,99.085l-3.727-3.853
		c-1.999,0.684-2.881,1.854-2.881,3.079v0.036c0,1.531,1.225,2.719,2.953,2.719C113.042,101.066,114.249,100.31,115.292,99.085z
		 M114.716,91.686v-0.036c0-1.116-0.864-1.98-1.999-1.98c-1.278,0-2.178,0.9-2.178,2.034v0.036c0,0.792,0.342,1.404,1.458,2.593
		C113.798,93.756,114.716,92.874,114.716,91.686z"/>
	<path fill="#F294BE" d="M126.667,89.093h8.967v0.864h-8.031v4.951h7.221v0.864h-7.221v5.06h8.121v0.864h-9.057V89.093z"/>
	<path fill="#F294BE" d="M138.655,88.552h0.881v13.144h-0.881V88.552z"/>
	<path fill="#F294BE" d="M143.136,88.552h0.883v13.144h-0.883V88.552z"/>
	<path fill="#F294BE" d="M146.862,97.123v-0.036c0-2.665,1.873-4.79,4.357-4.79c2.574,0,4.213,2.089,4.213,4.808
		c0,0.162,0,0.216-0.018,0.36h-7.617c0.162,2.287,1.801,3.619,3.602,3.619c1.422,0,2.395-0.63,3.15-1.44l0.613,0.54
		c-0.937,1.009-2.035,1.729-3.799,1.729C148.95,101.912,146.862,99.986,146.862,97.123z M154.479,96.673
		c-0.126-1.854-1.188-3.565-3.295-3.565c-1.819,0-3.224,1.53-3.386,3.565H154.479z"/>
	<path fill="#F294BE" d="M158.005,92.514h0.882v1.71c0.612-1.081,1.639-1.927,3.313-1.927c2.322,0,3.673,1.584,3.673,3.781v5.618
		h-0.882v-5.456c0-1.891-1.062-3.133-2.918-3.133c-1.8,0-3.187,1.368-3.187,3.277v5.312h-0.882V92.514z"/>
	<path fill="#F294BE" d="M173.43,99.518l0.774-0.486c0.774,1.314,1.621,1.999,3.098,1.999c1.548,0,2.736-1.17,2.736-3.367v-8.57
		h0.936v8.498c0,1.458-0.449,2.575-1.152,3.277c-0.666,0.666-1.566,1.008-2.574,1.008
		C175.374,101.876,174.204,100.904,173.43,99.518z"/>
	<path fill="#F294BE" d="M183.69,97.141v-0.036c0-2.575,1.998-4.808,4.734-4.808c2.719,0,4.699,2.197,4.699,4.771v0.036
		c0,2.575-1.998,4.807-4.734,4.807C185.671,101.912,183.69,99.716,183.69,97.141z M192.171,97.141v-0.036
		c0-2.215-1.657-3.979-3.781-3.979c-2.18,0-3.746,1.782-3.746,3.943v0.036c0,2.214,1.657,3.979,3.781,3.979
		C190.604,101.084,192.171,99.302,192.171,97.141z"/>
	<path fill="#F294BE" d="M195.84,92.514h0.882v1.71c0.613-1.081,1.639-1.927,3.313-1.927c2.323,0,3.673,1.584,3.673,3.781v5.618
		h-0.882v-5.456c0-1.891-1.062-3.133-2.917-3.133c-1.801,0-3.188,1.368-3.188,3.277v5.312h-0.882V92.514z"/>
	<path fill="#F294BE" d="M206.243,97.123v-0.036c0-2.665,1.873-4.79,4.357-4.79c2.575,0,4.213,2.089,4.213,4.808
		c0,0.162,0,0.216-0.018,0.36h-7.616c0.162,2.287,1.801,3.619,3.601,3.619c1.423,0,2.396-0.63,3.151-1.44l0.612,0.54
		c-0.936,1.009-2.035,1.729-3.799,1.729C208.332,101.912,206.243,99.986,206.243,97.123z M213.86,96.673
		c-0.127-1.854-1.189-3.565-3.295-3.565c-1.819,0-3.224,1.53-3.386,3.565H213.86z"/>
	<path fill="#F294BE" d="M216.594,100.544l0.522-0.702c1.008,0.774,2.125,1.206,3.295,1.206c1.242,0,2.215-0.684,2.215-1.746v-0.036
		c0-1.081-1.152-1.477-2.432-1.836c-1.494-0.432-3.15-0.882-3.15-2.521v-0.036c0-1.476,1.242-2.539,3.025-2.539
		c1.098,0,2.34,0.396,3.258,1.008l-0.467,0.738c-0.848-0.558-1.855-0.918-2.828-0.918c-1.26,0-2.088,0.684-2.088,1.603V94.8
		c0,1.026,1.242,1.404,2.557,1.783c1.477,0.414,3.025,0.954,3.025,2.575v0.036c0,1.639-1.404,2.683-3.17,2.683
		C219.024,101.876,217.565,101.336,216.594,100.544z"/>
</g>
<g>
</g>
<g>
</g>
<g>
</g>
<g>
</g>
<g>
</g>
<g>
</g>
</svg>
